<svg id="Logo" xmlns="http://www.w3.org/2000/svg" width="62" height="62" viewBox="0 0 62 62">
  <rect id="Rectangle_1" data-name="Rectangle 1" width="62" height="62"/>
  <path id="Path_1" data-name="Path 1" d="M22.88-11.568A12.511,12.511,0,0,1,22.032-6.9a10.732,10.732,0,0,1-2.384,3.664,10.666,10.666,0,0,1-3.7,2.384A12.987,12.987,0,0,1,11.168,0H2.336V-23.136h8.832a12.879,12.879,0,0,1,4.784.856,10.821,10.821,0,0,1,3.7,2.384,10.647,10.647,0,0,1,2.384,3.656A12.511,12.511,0,0,1,22.88-11.568Zm-4.4,0a10.618,10.618,0,0,0-.512-3.416,7.238,7.238,0,0,0-1.456-2.56,6.278,6.278,0,0,0-2.3-1.608,7.9,7.9,0,0,0-3.048-.56h-4.5V-3.424h4.5a7.9,7.9,0,0,0,3.048-.56,6.277,6.277,0,0,0,2.3-1.608,7.238,7.238,0,0,0,1.456-2.56A10.618,10.618,0,0,0,18.48-11.568Zm19.088-1.376a1.97,1.97,0,0,1-.344.352.794.794,0,0,1-.488.128,1.086,1.086,0,0,1-.592-.184q-.288-.184-.688-.416a5.143,5.143,0,0,0-.952-.416,4.374,4.374,0,0,0-1.368-.184,4.173,4.173,0,0,0-1.824.376,3.457,3.457,0,0,0-1.3,1.08,4.866,4.866,0,0,0-.776,1.7,9.15,9.15,0,0,0-.256,2.264,8.876,8.876,0,0,0,.28,2.336,5,5,0,0,0,.808,1.72,3.477,3.477,0,0,0,1.28,1.056,3.879,3.879,0,0,0,1.7.36A4.2,4.2,0,0,0,34.568-3a4.821,4.821,0,0,0,.984-.512q.4-.28.7-.512a1.049,1.049,0,0,1,.664-.232.8.8,0,0,1,.72.368l1.136,1.44A7.145,7.145,0,0,1,37.344-1.16a7.7,7.7,0,0,1-1.592.832,8.083,8.083,0,0,1-1.7.44A12.1,12.1,0,0,1,32.3.24,7.281,7.281,0,0,1,29.44-.328,6.686,6.686,0,0,1,27.1-1.984a7.98,7.98,0,0,1-1.584-2.664,10.293,10.293,0,0,1-.584-3.592,10.441,10.441,0,0,1,.52-3.352,7.594,7.594,0,0,1,1.528-2.672,7.006,7.006,0,0,1,2.5-1.768,8.6,8.6,0,0,1,3.424-.64,8.145,8.145,0,0,1,3.224.592,7.878,7.878,0,0,1,2.488,1.7Z" transform="translate(16 54)" fill="#fff"/>
</svg>
