<?xml version="1.0" standalone="no"?>
<!DOCTYPE svg PUBLIC "-//W3C//DTD SVG 20010904//EN"
 "http://www.w3.org/TR/2001/REC-SVG-20010904/DTD/svg10.dtd">
<svg version="1.0" xmlns="http://www.w3.org/2000/svg"
 width="700.000000pt" height="700.000000pt" viewBox="0 0 700.000000 700.000000"
 preserveAspectRatio="xMidYMid meet">
<metadata>
Created by potrace 1.14, written by Peter Selinger 2001-2017
</metadata>
<g transform="translate(0.000000,700.000000) scale(0.100000,-0.100000)"
fill="#000000" stroke="none">
<path d="M0 3500 l0 -3500 3500 0 3500 0 0 3500 0 3500 -3500 0 -3500 0 0
-3500z m3380 -14 c535 -125 868 -461 982 -990 31 -145 31 -427 0 -572 -46
-214 -125 -391 -242 -542 -149 -193 -331 -320 -575 -401 -218 -72 -239 -74
-892 -78 l-583 -5 0 1307 0 1306 618 -4 c545 -3 626 -5 692 -21z m2410 -735
c41 -12 113 -42 158 -67 90 -47 212 -138 212 -157 -1 -7 -33 -55 -73 -107 -60
-80 -78 -96 -109 -104 -33 -8 -45 -5 -95 23 -166 91 -269 120 -383 107 -232
-27 -369 -176 -411 -450 -17 -107 -6 -334 21 -426 44 -153 129 -263 247 -318
54 -25 68 -27 188 -27 151 0 181 10 312 101 64 44 85 54 119 54 46 0 66 -17
165 -147 l44 -56 -71 -66 c-164 -153 -382 -231 -646 -231 -427 0 -727 258
-824 710 -25 116 -25 361 0 478 82 387 300 614 667 697 100 23 381 14 479 -14z"/>
<path d="M2560 2210 l0 -922 338 4 c334 4 338 5 427 32 121 37 212 86 290 158
122 112 195 239 242 418 34 129 43 388 19 529 -37 211 -105 350 -236 481 -68
69 -102 94 -170 128 -161 79 -200 85 -577 90 l-333 4 0 -922z"/>
</g>
</svg>
